<svg width="30" height="30" viewBox="0 0 30 30" fill="none" xmlns="http://www.w3.org/2000/svg">
<circle cx="15" cy="15" r="15" fill="#222222"/>
<path fill-rule="evenodd" clip-rule="evenodd" d="M14.8971 10C12.3966 10 10.3187 11.8916 10.0129 14.3532C10.3639 14.4589 10.6195 14.7846 10.6195 15.17V18.4487C10.6195 18.9198 10.2376 19.3017 9.76645 19.3017H9.49229C8.1158 19.3017 6.99994 18.1859 6.99994 16.8094C6.99994 16.0035 7.38244 15.2869 7.9758 14.8313C8.05506 11.0538 11.1145 8 14.8971 8C18.6797 8 21.7391 11.0538 21.8184 14.8313C22.4117 15.2869 22.7942 16.0035 22.7942 16.8094C22.7942 17.8323 22.1779 18.7113 21.2964 19.0954L21.309 19.1386L16.7802 20.4498C16.2503 20.6032 15.6952 20.2972 15.5405 19.7664C15.3857 19.2356 15.6898 18.6809 16.2197 18.5275L19.1747 17.672V15.17C19.1747 14.7846 19.4303 14.4589 19.7812 14.3532C19.4755 11.8916 17.3976 10 14.8971 10Z" fill="#F9F9F9"/>
</svg>
